<svg id="bold" enable-background="new 0 0 24 24" height="512" viewBox="0 0 24 24" width="512" xmlns="http://www.w3.org/2000/svg"><path d="m22.437 6.554-1.437-.784v-2.77c0-1.654-1.346-3-3-3h-12c-1.654 0-3 1.346-3 3v2.77l-1.436.784c-.965.525-1.564 1.534-1.564 2.634v10.812c0 1.654 1.346 3 3 3h18c1.654 0 3-1.346 3-3v-10.812c0-1.1-.599-2.109-1.563-2.634zm-20.437 3.883v-1.249c0-.367.2-.703.521-.878l.479-.261v2.911zm9.417 4.918-6.417-3.351v-9.004c0-.551.449-1 1-1h12c.551 0 1 .449 1 1v9.004l-6.414 3.35c-.361.187-.811.187-1.169.001zm10.583-4.918-1 .522v-2.911l.479.261c.321.176.521.512.521.879z"/><path d="m10.25 12.275c-1.24 0-2.25-1.009-2.25-2.25 0-.788.415-1.52 1.083-1.908.358-.208.817-.086 1.025.271.208.358.087.817-.271 1.025-.211.123-.337.352-.337.612 0 .414.337.75.75.75s.75-.337.75-.75c0-.107-.021-.199-.063-.279-.193-.366-.054-.82.312-1.014.365-.195.819-.054 1.014.312.157.298.237.628.237.981 0 1.241-1.01 2.25-2.25 2.25z"/><path d="m17.25 11.799c-.07 0-.142-.01-.211-.03l-10.5-3.074c-.319-.094-.539-.387-.539-.72v-1.5c0-.335.222-.629.544-.721l10.5-3c.225-.063.471-.02.657.123.189.141.299.363.299.598v7.574c0 .236-.111.458-.301.6-.131.099-.289.15-.449.15z"/><path d="m17.25 12.225c-.414 0-.75-.336-.75-.75v-8.5c0-.414.336-.75.75-.75s.75.336.75.75v8.5c0 .414-.336.75-.75.75z"/><path d="m6.75 9.225c-.414 0-.75-.336-.75-.75v-2.5c0-.414.336-.75.75-.75s.75.336.75.75v2.5c0 .414-.336.75-.75.75z"/></svg>