<svg id="bold" enable-background="new 0 0 24 24" height="512" viewBox="0 0 24 24" width="512" xmlns="http://www.w3.org/2000/svg"><path d="m22.437 6.554-1.437-.784v-2.77c0-1.654-1.346-3-3-3h-12c-1.654 0-3 1.346-3 3v2.77l-1.436.784c-.965.525-1.564 1.534-1.564 2.634v10.812c0 1.654 1.346 3 3 3h18c1.654 0 3-1.346 3-3v-10.812c0-1.1-.599-2.109-1.563-2.634zm-20.437 3.883v-1.249c0-.367.2-.703.521-.878l.479-.261v2.911zm9.417 4.918-6.417-3.351v-9.004c0-.551.449-1 1-1h12c.551 0 1 .449 1 1v9.004l-6.414 3.35c-.361.187-.811.187-1.169.001zm10.583-4.918-1 .522v-2.911l.479.261c.321.176.521.512.521.879z"/><path d="m14 11h-.75c-.414 0-.75-.336-.75-.75v-4.5c0-.414.336-.75.75-.75h.75c1.654 0 3 1.346 3 3s-1.346 3-3 3zm0-4.5v3c.827 0 1.5-.673 1.5-1.5s-.673-1.5-1.5-1.5z"/><path d="m10.25 11c-.414 0-.75-.336-.75-.75v-3.25c0-.276-.224-.5-.5-.5s-.5.224-.5.5v3.25c0 .414-.336.75-.75.75s-.75-.336-.75-.75v-3.25c0-1.103.897-2 2-2s2 .897 2 2v3.25c0 .414-.336.75-.75.75z"/><path d="m10.25 9.5h-2.5c-.414 0-.75-.336-.75-.75s.336-.75.75-.75h2.5c.414 0 .75.336.75.75s-.336.75-.75.75z"/></svg>