<?xml version="1.0"?>
<svg xmlns="http://www.w3.org/2000/svg"  version="1.1" width="512" height="512" x="0" y="0" viewBox="0 0 512 512" style="enable-background:new 0 0 512 512" xml:space="preserve" class=""><g><g xmlns="http://www.w3.org/2000/svg"><g><g><path d="M496,104V436a19.994,19.994,0,0,1-20,20H36a19.994,19.994,0,0,1-20-20V104Z" fill="#eff2fa" data-original="#78b9eb" style="" class=""/><path d="M496,76v28H16V76A19.994,19.994,0,0,1,36,56H476A19.994,19.994,0,0,1,496,76Z" fill="#5c546a" data-original="#e0e0e2" style="" class=""/></g><path d="M312,264H192V144A120.005,120.005,0,0,1,312,264Z" fill="#ffda44" data-original="#ffda44" style="" class=""/><path d="M168,168V288L83.15,372.85A120,120,0,0,1,168,168Z" fill="#2fa39b" data-original="#ff9811" style="" class=""/><path d="M288,288A120,120,0,0,1,83.15,372.85L168,288Z" fill="#5ed4cd" data-original="#006df0" style="" class=""/><rect x="336" y="216" width="128" height="64" fill="#ffda44" data-original="#ffda44" style="" class=""/></g><g><path d="M476,48H36A28.031,28.031,0,0,0,8,76V436a28.031,28.031,0,0,0,28,28H476a28.031,28.031,0,0,0,28-28V76A28.031,28.031,0,0,0,476,48Zm12,388a12.01,12.01,0,0,1-12,12H36a12.01,12.01,0,0,1-12-12V112H488Zm0-340H24V76A12.01,12.01,0,0,1,36,64H476a12.01,12.01,0,0,1,12,12Z" fill="#000000" data-original="#000000" style="" class=""/><path d="M40,88h8a8,8,0,0,0,0-16H40a8,8,0,0,0,0,16Z" fill="#000000" data-original="#000000" style="" class=""/><path d="M72,88h8a8,8,0,0,0,0-16H72a8,8,0,0,0,0,16Z" fill="#000000" data-original="#000000" style="" class=""/><path d="M104,88h8a8,8,0,0,0,0-16h-8a8,8,0,0,0,0,16Z" fill="#000000" data-original="#000000" style="" class=""/><path d="M192,136a8,8,0,0,0-8,8V264a8,8,0,0,0,8,8H312a8,8,0,0,0,8-8A128.144,128.144,0,0,0,192,136Zm8,120V152.28A112.194,112.194,0,0,1,303.72,256Z" fill="#000000" data-original="#000000" style="" class=""/><path d="M288,280H176V168a8,8,0,0,0-8-8A128,128,0,1,0,296,288,8,8,0,0,0,288,280ZM56,288A112.152,112.152,0,0,1,160,176.283v108.4L83.349,361.337A111.133,111.133,0,0,1,56,288ZM168,400a111.136,111.136,0,0,1-73.337-27.349L171.314,296h108.4A112.154,112.154,0,0,1,168,400Z" fill="#000000" data-original="#000000" style="" class=""/><path d="M464,208H336a8,8,0,0,0-8,8v64a8,8,0,0,0,8,8H464a8,8,0,0,0,8-8V216A8,8,0,0,0,464,208Zm-8,64H344V224H456Z" fill="#000000" data-original="#000000" style="" class=""/><path d="M464,152H336a8,8,0,0,0,0,16H464a8,8,0,0,0,0-16Z" fill="#000000" data-original="#000000" style="" class=""/><path d="M336,192h64a8,8,0,0,0,0-16H336a8,8,0,0,0,0,16Z" fill="#000000" data-original="#000000" style="" class=""/><path d="M432,192a8,8,0,0,0,0-16h-8a8,8,0,0,0,0,16Z" fill="#000000" data-original="#000000" style="" class=""/><path d="M432,304H336a8,8,0,0,0,0,16h96a8,8,0,0,0,0-16Z" fill="#000000" data-original="#000000" style="" class=""/><path d="M464,304h-8a8,8,0,0,0,0,16h8a8,8,0,0,0,0-16Z" fill="#000000" data-original="#000000" style="" class=""/><path d="M432,336H336a8,8,0,0,0,0,16h96a8,8,0,0,0,0-16Z" fill="#000000" data-original="#000000" style="" class=""/><path d="M464,336h-8a8,8,0,0,0,0,16h8a8,8,0,0,0,0-16Z" fill="#000000" data-original="#000000" style="" class=""/><path d="M432,368H336a8,8,0,0,0,0,16h96a8,8,0,0,0,0-16Z" fill="#000000" data-original="#000000" style="" class=""/><path d="M464,368h-8a8,8,0,0,0,0,16h8a8,8,0,0,0,0-16Z" fill="#000000" data-original="#000000" style="" class=""/><path d="M432,400H336a8,8,0,0,0,0,16h96a8,8,0,0,0,0-16Z" fill="#000000" data-original="#000000" style="" class=""/><path d="M464,400h-8a8,8,0,0,0,0,16h8a8,8,0,0,0,0-16Z" fill="#000000" data-original="#000000" style="" class=""/></g></g></g></svg>
