<?xml version="1.0" encoding="iso-8859-1"?>
<!-- Generator: Adobe Illustrator 19.0.0, SVG Export Plug-In . SVG Version: 6.00 Build 0)  -->
<svg version="1.1" id="Capa_1" xmlns="http://www.w3.org/2000/svg" xmlns:xlink="http://www.w3.org/1999/xlink" x="0px" y="0px"
	 viewBox="0 0 424.96 424.96" style="enable-background:new 0 0 424.96 424.96;" xml:space="preserve">
<g>
	<g>
		<path d="M340.48,112.64h-256c-25.6,0-46.08,20.48-46.08,46.08v220.16c0,25.6,20.48,46.08,46.08,46.08h256
			c25.6,0,46.08-20.48,46.08-46.08V158.72C386.56,133.12,366.08,112.64,340.48,112.64z M285.696,237.056
			c0,8.704-6.656,15.36-15.36,15.36H154.624c-8.704,0-15.36-6.656-15.36-15.36v-38.912c0-8.704,6.656-15.36,15.36-15.36
			c8.704,0,15.36,6.656,15.36,15.36v23.552h84.992v-23.552c0-8.704,6.656-15.36,15.36-15.36c8.704,0,15.36,6.656,15.36,15.36
			V237.056z"/>
	</g>
</g>
<g>
	<g>
		<path d="M340.48,56.32h-256c-8.704,0-15.36,6.656-15.36,15.36c0,8.704,6.656,15.36,15.36,15.36h256
			c8.704,0,15.36-6.656,15.36-15.36C355.84,62.976,349.184,56.32,340.48,56.32z"/>
	</g>
</g>
<g>
	<g>
		<path d="M314.88,0h-204.8c-8.704,0-15.36,6.656-15.36,15.36s6.656,15.36,15.36,15.36h204.8c8.704,0,15.36-6.656,15.36-15.36
			S323.584,0,314.88,0z"/>
	</g>
</g>
<g>
</g>
<g>
</g>
<g>
</g>
<g>
</g>
<g>
</g>
<g>
</g>
<g>
</g>
<g>
</g>
<g>
</g>
<g>
</g>
<g>
</g>
<g>
</g>
<g>
</g>
<g>
</g>
<g>
</g>
</svg>
