<svg id="Capa_1" enable-background="new 0 0 609.619 609.619" height="512" viewBox="0 0 609.619 609.619" width="512" xmlns="http://www.w3.org/2000/svg"><g><g id="Page-1_66_"><g id="_x30_67---Click-Button"><path id="Shape_417_" d="m304.827 73.575c-5.805 0-10.511-4.706-10.511-10.511v-52.553c.001-5.805 4.706-10.511 10.511-10.511s10.511 4.706 10.511 10.511v52.553c0 5.805-4.706 10.511-10.511 10.511z"/><path id="Shape_416_" d="m252.274 84.085c-2.787-.001-5.46-1.108-7.431-3.08l-42.043-42.042c-3.983-4.124-3.926-10.68.128-14.734s10.61-4.111 14.734-.128l42.043 42.043c3.005 3.006 3.904 7.526 2.277 11.453-1.626 3.927-5.458 6.487-9.708 6.488z"/><path id="Shape_415_" d="m357.381 84.085c-4.25-.001-8.082-2.562-9.708-6.489s-.728-8.447 2.277-11.453l42.043-42.043c2.639-2.732 6.547-3.828 10.222-2.866s6.545 3.832 7.507 7.507-.134 7.583-2.866 10.222l-42.043 42.043c-1.972 1.971-4.645 3.079-7.432 3.079z"/><path id="Shape_414_" d="m443.652 263.933c3.554-7.141 10.843-11.655 18.819-11.655s15.265 4.514 18.819 11.655l55.822 113.263c50.626-33.037 73.527-95.414 56.303-153.36s-70.477-97.688-130.929-97.708h-315.32c-75.463 0-136.639 61.175-136.639 136.639s61.175 136.639 136.639 136.639h229.774zm-296.485-95.762c-25.136-.029-49.246 9.97-66.984 27.78-2.647 2.724-6.557 3.808-10.229 2.835-3.671-.972-6.533-3.85-7.484-7.527-.952-3.677.154-7.581 2.893-10.213 21.67-21.737 51.112-33.936 81.805-33.897 5.805 0 10.511 4.706 10.511 10.511s-4.707 10.511-10.512 10.511zm52.554 0h-10.511c-5.805 0-10.511-4.706-10.511-10.511s4.706-10.511 10.511-10.511h10.511c5.805 0 10.511 4.706 10.511 10.511s-4.707 10.511-10.511 10.511z"/><path id="Shape_413_" d="m523.449 397.019v-.105l-60.962-123.7-115.554 234.724 58.376-13.306c6.231-1.405 12.763.099 17.753 4.088 4.989 3.989 7.893 10.03 7.893 16.418v83.97c0 5.805 4.706 10.511 10.511 10.511h42.043c5.805 0 10.511-4.706 10.511-10.511v-83.97c-.002-6.378 2.891-12.411 7.866-16.403 4.974-3.991 11.492-5.509 17.717-4.125l58.502 13.412-54.655-110.94v-.063z"/></g></g></g></svg>