<svg height="512pt" viewBox="0 -11 512.001 512" width="512pt" xmlns="http://www.w3.org/2000/svg"><path d="m504.472656 36.636719v416.597656c0 16.070313-13.023437 29.105469-29.109375 29.105469h-438.726562c-16.085938 0-29.109375-13.035156-29.109375-29.105469v-416.597656c0-16.074219 13.023437-29.105469 29.109375-29.105469h438.726562c16.085938 0 29.109375 13.03125 29.109375 29.105469zm0 0" fill="#eff2fa"/><path d="m475.363281 7.53125h-69.835937c16.082031 0 29.105468 13.03125 29.105468 29.105469v416.597656c0 16.070313-13.023437 29.105469-29.105468 29.105469h69.835937c16.085938 0 29.109375-13.035156 29.109375-29.105469v-416.597656c0-16.074219-13.023437-29.105469-29.109375-29.105469zm0 0" fill="#d7deed"/><path d="m504.472656 36.636719v96.46875h-496.945312v-96.46875c0-16.074219 13.023437-29.105469 29.109375-29.105469h438.726562c16.085938 0 29.109375 13.03125 29.109375 29.105469zm0 0" fill="#5c546a"/><path d="m475.363281 7.53125h-69.835937c16.082031 0 29.105468 13.03125 29.105468 29.105469v96.46875h69.839844v-96.46875c0-16.074219-13.023437-29.105469-29.109375-29.105469zm0 0" fill="#4f495b"/><path d="m326.683594 88.378906h-141.367188c-9.71875 0-17.597656-7.878906-17.597656-17.597656v-.117188c0-9.71875 7.878906-17.597656 17.597656-17.597656h141.367188c9.71875 0 17.597656 7.878906 17.597656 17.597656v.117188c.003906 9.71875-7.875 17.597656-17.597656 17.597656zm0 0" fill="#fff"/><path d="m110.097656 88.378906h-.117187c-9.71875 0-17.597657-7.878906-17.597657-17.597656v-.117188c0-9.71875 7.878907-17.597656 17.597657-17.597656h.117187c9.71875 0 17.597656 7.878906 17.597656 17.597656v.117188c0 9.71875-7.878906 17.597656-17.597656 17.597656zm0 0" fill="#ffd782"/><path d="m403.652344 88.378906h-.117188c-9.71875 0-17.597656-7.878906-17.597656-17.597656v-.117188c0-9.71875 7.878906-17.597656 17.597656-17.597656h.117188c9.71875 0 17.597656 7.878906 17.597656 17.597656v.117188c0 9.71875-7.878906 17.597656-17.597656 17.597656zm0 0" fill="#ffd782"/><path d="m255.707031 368.585938h-.589843c-49.148438 0-88.992188-39.839844-88.992188-88.988282v-.589844c0-49.148437 39.84375-88.992187 88.992188-88.992187h.589843c49.148438 0 88.988281 39.84375 88.988281 88.992187v.589844c0 49.148438-39.839843 88.988282-88.988281 88.988282zm0 0" fill="#5ed4cd"/><path d="m259.78125 314.902344c-3.871094 0-7.582031-1.539063-10.320312-4.277344l-30.976563-30.976562c-5.699219-5.699219-5.699219-14.941407 0-20.640626 5.703125-5.699218 14.941406-5.699218 20.640625 0l20.65625 20.65625 86.621094-85.371093c5.699218-5.703125 14.941406-5.703125 20.636718 0 5.699219 5.699219 5.699219 14.941406 0 20.636719l-96.9375 95.695312c-2.738281 2.738281-6.449218 4.277344-10.320312 4.277344zm0 0" fill="#2fa39b"/><path d="m475.367188 0h-438.734376c-20.199218 0-36.632812 16.433594-36.632812 36.636719v416.597656c0 20.199219 16.433594 36.636719 36.632812 36.636719h438.734376c20.199218 0 36.632812-16.4375 36.632812-36.636719v-416.597656c0-20.203125-16.433594-36.636719-36.632812-36.636719zm0 474.820312h-438.734376c-11.902343 0-21.582031-9.683593-21.582031-21.585937v-312.601563h24.234375c4.15625 0 7.523438-3.367187 7.523438-7.523437s-3.367188-7.527344-7.523438-7.527344h-24.234375v-88.945312c0-11.902344 9.679688-21.585938 21.582031-21.585938h438.734376c11.902343 0 21.582031 9.683594 21.582031 21.585938v88.949219h-425.058594c-4.15625 0-7.523437 3.367187-7.523437 7.523437s3.367187 7.523437 7.523437 7.523437h425.058594v312.601563c0 11.902344-9.679688 21.585937-21.582031 21.585937zm0 0"/><path d="m185.371094 95.902344h141.257812c13.882813 0 25.179688-11.292969 25.179688-25.179688 0-13.886718-11.296875-25.183594-25.179688-25.183594h-141.257812c-13.882813 0-25.179688 11.296876-25.179688 25.183594 0 13.886719 11.296875 25.179688 25.179688 25.179688zm0-35.3125h141.257812c5.585938 0 10.128906 4.542968 10.128906 10.132812 0 5.585938-4.542968 10.128906-10.128906 10.128906h-141.257812c-5.585938 0-10.128906-4.542968-10.128906-10.128906 0-5.589844 4.542968-10.132812 10.128906-10.132812zm0 0"/><path d="m110.035156 95.902344c13.886719 0 25.183594-11.292969 25.183594-25.179688 0-13.886718-11.296875-25.183594-25.183594-25.183594-13.882812 0-25.179687 11.296876-25.179687 25.183594 0 13.886719 11.296875 25.179688 25.179687 25.179688zm0-35.3125c5.589844 0 10.132813 4.542968 10.132813 10.132812 0 5.585938-4.542969 10.128906-10.132813 10.128906-5.585937 0-10.128906-4.542968-10.128906-10.128906 0-5.589844 4.546875-10.132812 10.128906-10.132812zm0 0"/><path d="m403.59375 95.902344c13.882812 0 25.179688-11.292969 25.179688-25.179688 0-13.886718-11.296876-25.183594-25.179688-25.183594-13.886719 0-25.183594 11.296876-25.183594 25.183594 0 13.886719 11.296875 25.179688 25.183594 25.179688zm0-35.3125c5.585938 0 10.128906 4.542968 10.128906 10.132812 0 5.585938-4.542968 10.128906-10.128906 10.128906s-10.132812-4.542968-10.132812-10.128906c0-5.589844 4.546874-10.132812 10.132812-10.132812zm0 0"/><path d="m356.722656 182.492188c-5.910156 0-11.464844 2.300781-15.605468 6.4375l-19.773438 19.492187c-17.972656-16.746094-41.246094-25.933594-65.9375-25.933594-25.863281 0-50.171875 10.070313-68.445312 28.359375-18.289063 18.277344-28.363282 42.585938-28.363282 68.449219 0 53.382813 43.429688 96.8125 96.808594 96.8125 25.855469 0 50.167969-10.070313 68.460938-28.355469 18.28125-18.289062 28.351562-42.601562 28.351562-68.457031 0-11.496094-1.984375-22.6875-5.898438-33.339844l26.042969-25.707031c8.621094-8.625 8.621094-22.65625 0-31.28125-4.179687-4.175781-9.734375-6.476562-15.640625-6.476562zm5.035156 27.085937-29.652343 29.269531c-.019531.019532-.039063.035156-.054688.050782l-18.210937 17.980468c-2.960938 2.917969-2.988282 7.683594-.070313 10.640625 2.917969 2.960938 7.683594 2.988281 10.640625.070313l9.894532-9.769532c1.890624 6.953126 2.863281 14.136719 2.863281 21.476563 0 21.835937-8.503907 42.371094-23.941407 57.816406-15.449218 15.441407-35.980468 23.945313-57.816406 23.945313-45.085937 0-81.761718-36.679688-81.761718-81.761719 0-21.839844 8.507812-42.371094 23.953124-57.808594 15.4375-15.445312 35.964844-23.949219 57.808594-23.949219 20.628906 0 40.089844 7.597657 55.203125 21.460938l-50.792969 50.0625-15.371093-15.375c-8.625-8.621094-22.65625-8.621094-31.285157.003906-8.621093 8.625-8.621093 22.65625 0 31.28125l30.976563 30.976563c4.179687 4.175781 9.730469 6.476562 15.640625 6.476562s11.464844-2.300781 15.609375-6.445312l25.785156-25.457031c2.960938-2.917969 2.988281-7.683594.070313-10.640626-2.921875-2.960937-7.683594-2.988281-10.640625-.070312l-25.824219 25.488281c-1.335938 1.335938-3.109375 2.074219-5 2.074219-1.886719 0-3.664062-.738281-5-2.070312l-30.972656-30.976563c-2.757813-2.757813-2.757813-7.242187-.003906-10 2.757812-2.753906 7.246093-2.753906 10 0l20.65625 20.65625c2.925781 2.925781 7.660156 2.941406 10.601562.039063l86.660156-85.414063c1.335938-1.332031 3.109375-2.070313 5-2.070313 1.886719 0 3.660156.738282 4.996094 2.070313 2.757812 2.761719 2.757812 7.246094.039062 9.96875zm0 0"/><path d="m342.261719 398.382812h-173.699219c-4.15625 0-7.523438 3.371094-7.523438 7.527344s3.367188 7.523438 7.523438 7.523438h173.699219c4.15625 0 7.523437-3.367188 7.523437-7.523438s-3.367187-7.527344-7.523437-7.527344zm0 0"/><path d="m297.804688 432.972656h-84.785157c-4.15625 0-7.527343 3.371094-7.527343 7.527344s3.371093 7.523438 7.527343 7.523438h84.785157c4.15625 0 7.523437-3.367188 7.523437-7.523438s-3.367187-7.527344-7.523437-7.527344zm0 0"/></svg>