<svg height="366pt" viewBox="-8 0 366 366.1523" width="366pt" xmlns="http://www.w3.org/2000/svg"><path d="m74.335938 58.734375c10.355468-.007813 18.75-8.402344 18.761718-18.757813v-21.0625c.074219-10.363281-8.265625-18.8242182-18.625-18.898437-10.363281-.0742188-18.824218 8.261719-18.898437 18.625v.273437 21.0625c.011719 10.355469 8.402343 18.75 18.761719 18.757813zm0 0"/><path d="m275.058594 58.734375c10.355468-.007813 18.75-8.402344 18.761718-18.757813v-21.0625c.085938-10.367187-8.257812-18.8398432-18.625-18.914062-10.367187-.0742188-18.832031 8.273438-18.898437 18.640625v.273437 21.0625c.011719 10.355469 8.40625 18.75 18.761719 18.757813zm0 0"/><path d="m322.390625 42.851562h-14.703125c-1.488281 16.910157-15.652344 29.878907-32.625 29.878907s-31.136719-12.96875-32.625-29.878907h-135.476562c-1.492188 16.910157-15.65625 29.878907-32.628907 29.878907-16.976562 0-31.136719-12.96875-32.628906-29.878907h-14.699219c-14.863281.019532-26.910156 12.066407-26.9296872 26.929688v57.839844h349.2421872v-57.835938c-.011718-14.867187-12.058594-26.917968-26.925781-26.933594zm0 0"/><path d="m.0820312 339.222656c.015625 14.867188 12.0624998 26.910156 26.9257808 26.929688h295.382813c14.863281-.019532 26.910156-12.0625 26.925781-26.929688v-197.597656h-349.2343748zm113.3906248-97.484375c2.699219-2.765625 7.132813-2.820312 9.898438-.117187l35.429687 34.589844 67.746094-66.144532c2.769531-2.703125 7.199219-2.648437 9.902344.117188 2.699219 2.765625 2.644531 7.199218-.121094 9.898437l-72.640625 70.921875c-2.71875 2.652344-7.058594 2.652344-9.777344 0l-40.320312-39.367187c-2.765625-2.699219-2.816406-7.132813-.117188-9.898438zm0 0"/></svg>