<svg width="100" height="100" viewBox="0 0 100 100" fill="none" xmlns="http://www.w3.org/2000/svg">
<ellipse cx="89.7917" cy="15" rx="9.79167" ry="10" fill="#FC2B36"/>
<ellipse cx="39.5" cy="56" rx="23.5" ry="24" fill="#FC2B36"/>
<g filter="url(#filter0_bd)">
<circle cx="60" cy="40" r="40" fill="url(#paint0_linear)"/>
<circle cx="60" cy="40" r="39.5" stroke="url(#paint1_linear)"/>
</g>
<g filter="url(#filter1_d)">
<path d="M60 60C48.954 60 40 51.046 40 40C40 28.954 48.954 20 60 20C71.046 20 80 28.954 80 40C80 51.046 71.046 60 60 60ZM60 56C64.2435 56 68.3131 54.3143 71.3137 51.3137C74.3143 48.3131 76 44.2435 76 40C76 35.7565 74.3143 31.6869 71.3137 28.6863C68.3131 25.6857 64.2435 24 60 24C55.7565 24 51.6869 25.6857 48.6863 28.6863C45.6857 31.6869 44 35.7565 44 40C44 44.2435 45.6857 48.3131 48.6863 51.3137C51.6869 54.3143 55.7565 56 60 56ZM58 46H62V50H58V46ZM58 30H62V42H58V30Z" fill="white"/>
</g>
<defs>
<filter id="filter0_bd" x="0" y="-20" width="120" height="120" filterUnits="userSpaceOnUse" color-interpolation-filters="sRGB">
<feFlood flood-opacity="0" result="BackgroundImageFix"/>
<feGaussianBlur in="BackgroundImage" stdDeviation="10"/>
<feComposite in2="SourceAlpha" operator="in" result="effect1_backgroundBlur"/>
<feColorMatrix in="SourceAlpha" type="matrix" values="0 0 0 0 0 0 0 0 0 0 0 0 0 0 0 0 0 0 127 0"/>
<feOffset dx="-10" dy="10"/>
<feGaussianBlur stdDeviation="5"/>
<feColorMatrix type="matrix" values="0 0 0 0 0 0 0 0 0 0 0 0 0 0 0 0 0 0 0.05 0"/>
<feBlend mode="normal" in2="effect1_backgroundBlur" result="effect2_dropShadow"/>
<feBlend mode="normal" in="SourceGraphic" in2="effect2_dropShadow" result="shape"/>
</filter>
<filter id="filter1_d" x="26" y="11" width="68" height="68" filterUnits="userSpaceOnUse" color-interpolation-filters="sRGB">
<feFlood flood-opacity="0" result="BackgroundImageFix"/>
<feColorMatrix in="SourceAlpha" type="matrix" values="0 0 0 0 0 0 0 0 0 0 0 0 0 0 0 0 0 0 127 0"/>
<feOffset dy="5"/>
<feGaussianBlur stdDeviation="5"/>
<feColorMatrix type="matrix" values="0 0 0 0 0 0 0 0 0 0 0 0 0 0 0 0 0 0 0.25 0"/>
<feBlend mode="normal" in2="BackgroundImageFix" result="effect1_dropShadow"/>
<feBlend mode="normal" in="SourceGraphic" in2="effect1_dropShadow" result="shape"/>
</filter>
<linearGradient id="paint0_linear" x1="37" y1="66.5" x2="90" y2="14.5" gradientUnits="userSpaceOnUse">
<stop stop-color="#FC2B36" stop-opacity="0.5"/>
<stop offset="1" stop-color="white" stop-opacity="0.25"/>
</linearGradient>
<linearGradient id="paint1_linear" x1="34" y1="67" x2="90" y2="15.5" gradientUnits="userSpaceOnUse">
<stop stop-color="white" stop-opacity="0.25"/>
<stop offset="1" stop-color="white" stop-opacity="0.05"/>
</linearGradient>
</defs>
</svg>
