<?xml version="1.0"?>
<svg xmlns="http://www.w3.org/2000/svg"  version="1.1" width="512" height="512" x="0" y="0" viewBox="0 0 512.628 512.628" style="enable-background:new 0 0 512 512" xml:space="preserve" class=""><g><g xmlns="http://www.w3.org/2000/svg"><g><path d="m480.541 239.301c-27.563-19.738-65.993 2.63-97.59 1.532-14.278-28.826 11.1-53.544-27.362-66.577-58.211-12.007-111.888 8.862-169.88.425-111.539-.035 11.274 83.693-131.462 70.35-85.403-7.983 26.262 92.897 57.989 120.762 47.848 32.341 89.714 108.673 144.832 108.673 50.054 0 106.581-67.268 147.071-109.163 25.978-36.446 108.912-74.021 76.402-126.002z" fill="#ed664c" data-original="#41efcd" style="" class=""/><path d="m237.199 153.126c-61.157-20.265-79.916 82.339-15.391 85.457 47.874 2.063 60.917-70.878 15.391-85.457z" fill="#80aeff" data-original="#80aeff" style="" class=""/></g><g fill="#2e386b"><path d="m155.592 424.233c73.576 75.31 134.7 83.595 203.695-2.945 34.345-44.626 139.937-113.958 142.938-169.25-2.289-22.131-32.391-29.341-50.784-30.218-16.554-1.033-33.391 3.942-48.868 1.877-5-.959-4.676-5.802-5.254-10.443-3.791-16.74 17.574-47.943-6.616-54.732-19.175-3.055-19.181 19.933-21.15 33.352-1.79 17.396-2.831 38.804 11.93 51.663 28.477 21.617 67.618-8.965 95.907 11.852-3.954 16.996-17.281 30.822-28.463 44.529-31.346 36.602-71.101 68.673-102.912 105.271-60.715 80.657-110.094 75.65-177.644 5.905-31.901-33.704-67.401-64.685-96.522-101.239-8.827-10.49-18.104-21.673-25.43-33.272-2.234-3.982-5.55-9.177-7.365-13.374 1.33-4.916 2.677-9.248 7.528-11.216 28.659-7.345 76.353 14.884 91.473-23.4 7.606-20.729 2.821-42.768-1.985-63.31-.798-4.868-5.513-8.283-10.4-7.066-10.218 2.761-5.027 13.977-3.771 21.143 3.962 20.15 7.445 55.738-22.927 53.124-24.002-.165-53.354-13.719-74.608 4.543-8.225 8.235-15.195 20.328-13.78 31.771 6.749 20.912 19.985 40 35.272 55.278 36.867 33.45 75.28 63.84 109.736 100.157z" fill="#2e386b" data-original="#2e386b" style="" class=""/><path d="m152.519 14.883c-25.291-24.71-62.534 6.045-38.308 33.568 24.374 22.837 60.758-7.055 38.308-33.568z" fill="#2e386b" data-original="#2e386b" style="" class=""/><path d="m148.57 82.387c-24.393-20.627-56.833 11.023-35.283 35.167 23.457 21.303 55.943-12.28 35.283-35.167z" fill="#2e386b" data-original="#2e386b" style="" class=""/><path d="m405.604 36.665c4.794-16.165-5.013-36.453-23.399-36.61-25.113-1.578-35.022 31.075-17.903 46.968 12.526 12.426 37.023 7.397 41.302-10.358z" fill="#2e386b" data-original="#2e386b" style="" class=""/><path d="m375.428 77.847c-16.955 7.025-17.43 31.462-5.414 43.208 16.13 15.735 43.471 2.878 40.363-19.877.001-17.84-18.315-30.876-34.949-23.331z" fill="#2e386b" data-original="#2e386b" style="" class=""/><path d="m484.496 482.62c-152.58 1.066-308.135 7.113-460.507-.135-14.042.343-13.412 22.598.849 21.841 9.584-.372 19.164-.497 28.743-.636 99.318-.487 216.578 3.07 315.82 5.16 36.792.954 78.841 2.343 115.533 3.777 19.471-.346 19.302-30.204-.438-30.007z" fill="#2e386b" data-original="#2e386b" style="" class=""/><path d="m285.306 191.395c-.212-8.64-2.378-17.572-6.339-25.32-.986-23.015-.336-48.924 12.074-68.775 9.098-14.062 25.607-14.902 40.711-12.524 19.629-.468 19.078-30.499-.664-30.125-54.712-.97-72.51 42.961-70.684 90.585-29.379-19.7-73.598-8.39-85.739 25.982-29.897 85.49 108.166 106.233 110.641 20.177zm-96.877-2.489c5.382-24.949 43.647-29.646 61.408-15.67 7.788 6.078 11.886 16.469 11.608 26.153-5.032 43.347-83.39 36.088-73.016-10.483z" fill="#2e386b" data-original="#2e386b" style="" class=""/></g></g></g></svg>
