<svg height="512" viewBox="0 0 64 64" width="512" xmlns="http://www.w3.org/2000/svg"><g id="Artboard_01" data-name="Artboard 01"><rect fill="#b5b1a5" height="60" rx="2" width="60" x="1.998" y="2"/><path d="m60 2h-56a2 2 0 0 0 -2 2v12.137c4.459 16.069 18.238 37.656 60 38.643v-50.78a2 2 0 0 0 -2-2z" fill="#d9d5ca"/><path d="m55 26a13 13 0 0 1 -26 0z" fill="#5bc6e5"/><path d="m42.998 54v-16.182h-2v16.182h-8v2h18v-2z" fill="#5bc6e5"/><path d="m31.058 26a12.97 12.97 0 0 0 18.523 10.545 12.971 12.971 0 0 0 5.419-10.545z" fill="#98fbfe"/><path d="m43 35h-2v-4.382l-2.552 1.276a1 1 0 0 1 -1.448-.894v-5h2v3.382l2.553-1.277a1 1 0 0 1 1.447.895z" fill="#eafeff"/><path d="m8.998 37h17v14h-17z" fill="#d9d5ca"/><path d="m25.998 2v10l6-4.001 6 4.001v-10z" fill="#ffb127"/><path d="m26 37h-12.411a49.178 49.178 0 0 0 12.411 9.439z" fill="#fafaf7"/><path d="m60 1h-56a3 3 0 0 0 -3 3v56a3 3 0 0 0 3 3h56a3 3 0 0 0 3-3v-56a3 3 0 0 0 -3-3zm-33 2h10v7.131l-4.447-2.964a1 1 0 0 0 -1.109 0l-4.444 2.964zm34 57a1 1 0 0 1 -1 1h-56a1 1 0 0 1 -1-1v-56a1 1 0 0 1 1-1h21v9a1 1 0 0 0 1.555.832l5.445-3.632 5.446 3.631a1 1 0 0 0 1.554-.831v-9h21a1 1 0 0 1 1 1z"/><path d="m55 25h-26a1 1 0 0 0 -1 1 14.007 14.007 0 0 0 13 13.949v14.051h-8v2h18v-2h-8v-14.051a14.007 14.007 0 0 0 13-13.949 1 1 0 0 0 -1-1zm-13 13a12.017 12.017 0 0 1 -11.961-11h6.961v4a1 1 0 0 0 1.448.895l2.552-1.277v4.382h2v-6a1 1 0 0 0 -1.447-.895l-2.553 1.277v-2.382h14.957a12.016 12.016 0 0 1 -11.957 11z"/><path d="m26 36h-17a1 1 0 0 0 -1 1v14a1 1 0 0 0 1 1h17a1 1 0 0 0 1-1v-14a1 1 0 0 0 -1-1zm-1 14h-15v-12h15z"/></g></svg>