<?xml version="1.0" encoding="iso-8859-1"?>
<!-- Generator: Adobe Illustrator 19.0.0, SVG Export Plug-In . SVG Version: 6.00 Build 0)  -->
<svg version="1.1" id="Capa_1" xmlns="http://www.w3.org/2000/svg" xmlns:xlink="http://www.w3.org/1999/xlink" x="0px" y="0px"
	 viewBox="0 0 512 512" style="enable-background:new 0 0 512 512;" xml:space="preserve">
<path style="fill:#97C6EB;" d="M102.4,213.333v136.533c0,84.83,68.77,153.6,153.6,153.6s153.6-68.77,153.6-153.6V213.333H102.4z"/>
<g>
	<path style="fill:#78B9EB;" d="M256,162.133c-14.14,0-25.6-11.46-25.6-25.6v-51.2c0-14.14,11.46-25.6,25.6-25.6v-51.2
		c-84.83,0-153.6,68.77-153.6,153.6v51.2H256V162.133z"/>
	<path style="fill:#78B9EB;" d="M256,8.533v51.2c14.14,0,25.6,11.46,25.6,25.6v51.2c0,14.14-11.46,25.6-25.6,25.6v51.2h153.6v-51.2
		C409.6,77.303,340.83,8.533,256,8.533z"/>
</g>
<path style="fill:#FFAF46;" d="M230.4,85.333v51.2c0,14.14,11.46,25.6,25.6,25.6c14.14,0,25.6-11.46,25.6-25.6v-51.2
	c0-14.14-11.46-25.6-25.6-25.6C241.86,59.733,230.4,71.194,230.4,85.333z"/>
<path style="fill:#231F20;" d="M256,0C166.494,0.102,93.969,72.627,93.867,162.133v187.733C93.867,439.407,166.46,512,256,512
	s162.133-72.593,162.133-162.133V162.133C418.031,72.627,345.506,0.102,256,0z M401.067,162.133V204.8H264.533v-35.345
	c15.027-3.883,25.54-17.408,25.6-32.922v-51.2c-0.06-15.514-10.573-29.039-25.6-32.922v-34.91
	C341.12,22.042,400.939,85.41,401.067,162.133z M256,68.267c9.429,0,17.067,7.637,17.067,17.067v51.2
	c0,9.429-7.637,17.067-17.067,17.067c-9.429,0-17.067-7.637-17.067-17.067v-51.2C238.933,75.904,246.571,68.267,256,68.267z
	 M247.467,17.502v34.91c-15.027,3.883-25.54,17.408-25.6,32.922v51.2c0.06,15.514,10.573,29.039,25.6,32.922V204.8H110.933v-42.667
	C111.061,85.41,170.88,22.042,247.467,17.502z M256,494.933c-80.085-0.085-144.981-64.981-145.067-145.067v-128h290.133v128
	C400.981,429.952,336.085,494.848,256,494.933z"/>
<g>
</g>
<g>
</g>
<g>
</g>
<g>
</g>
<g>
</g>
<g>
</g>
<g>
</g>
<g>
</g>
<g>
</g>
<g>
</g>
<g>
</g>
<g>
</g>
<g>
</g>
<g>
</g>
<g>
</g>
</svg>
