<?xml version="1.0"?>
<svg xmlns="http://www.w3.org/2000/svg"  version="1.1" width="512" height="512" x="0" y="0" viewBox="0 0 260 260" style="enable-background:new 0 0 512 512" xml:space="preserve"><g>
<path xmlns="http://www.w3.org/2000/svg" d="M256,121.438h-6.836l-5.064-5.357c-0.972-1.028-2.416-1.466-3.797-1.152c-1.38,0.315-2.491,1.336-2.921,2.685l-1.828,5.735  l-2.633-5.493c-0.665-1.388-2.068-2.271-3.607-2.271s-2.942,0.883-3.607,2.271l-2.634,5.494l-1.828-5.736  c-0.463-1.452-1.711-2.515-3.219-2.741c-1.511-0.222-3.013,0.425-3.88,1.678l-3.388,4.89l-8.263,0.01l-21.014-26.81  c-0.926-1.182-2.435-1.746-3.912-1.458c-1.474,0.287-2.664,1.375-3.08,2.818l-15.938,55.276l-23.513-52.558  c-0.644-1.44-2.074-2.367-3.651-2.367s-3.007,0.927-3.651,2.367l-23.513,52.558L88.285,96.001c-0.41-1.422-1.572-2.502-3.021-2.807  c-1.447-0.305-2.947,0.216-3.895,1.353l-22.438,26.906h-9.751l-3.077-4.787c-0.838-1.304-2.358-2.009-3.889-1.803  c-1.536,0.203-2.817,1.274-3.287,2.75l-1.828,5.735l-2.633-5.493c-0.665-1.388-2.068-2.271-3.607-2.271s-2.942,0.883-3.607,2.271  l-2.634,5.494l-1.828-5.736c-0.424-1.331-1.513-2.345-2.871-2.673c-1.36-0.329-2.789,0.076-3.775,1.066l-5.406,5.431H4  c-2.209,0-4,1.791-4,4s1.791,4,4,4h8.4c1.064,0,2.084-0.424,2.835-1.178l1.933-1.942l2.889,9.065  c0.498,1.562,1.898,2.662,3.534,2.775c1.637,0.113,3.175-0.783,3.884-2.261l3.384-7.058l3.383,7.058  c0.708,1.478,2.232,2.382,3.884,2.261c1.635-0.113,3.036-1.213,3.534-2.775l2.323-7.288c0.733,0.833,1.807,1.358,3.003,1.358h13.818  c1.187,0,2.312-0.527,3.072-1.438l18.81-22.556L99.565,164c0.465,1.614,1.889,2.765,3.563,2.882  c1.679,0.117,3.245-0.824,3.931-2.357l24.328-54.377l24.328,54.377c0.647,1.447,2.083,2.367,3.65,2.367  c0.093,0,0.187-0.003,0.281-0.01c1.675-0.118,3.099-1.269,3.563-2.882l16.8-58.268l17.392,22.189  c0.758,0.967,1.919,1.532,3.148,1.532c0.001,0,0.003,0,0.005,0l12.305-0.015c1.281-0.001,2.481-0.616,3.232-1.649l2.42,7.594  c0.498,1.562,1.899,2.662,3.534,2.775c1.633,0.113,3.175-0.783,3.884-2.261l3.384-7.058l3.383,7.058  c0.708,1.478,2.232,2.382,3.884,2.261c1.635-0.113,3.036-1.213,3.534-2.775l2.83-8.878l1.589,1.682  c0.755,0.799,1.807,1.252,2.907,1.252H256c2.209,0,4-1.791,4-4S258.209,121.438,256,121.438z" fill="#60bbe7" data-original="#000000" style=""/>
<g xmlns="http://www.w3.org/2000/svg">
</g>
<g xmlns="http://www.w3.org/2000/svg">
</g>
<g xmlns="http://www.w3.org/2000/svg">
</g>
<g xmlns="http://www.w3.org/2000/svg">
</g>
<g xmlns="http://www.w3.org/2000/svg">
</g>
<g xmlns="http://www.w3.org/2000/svg">
</g>
<g xmlns="http://www.w3.org/2000/svg">
</g>
<g xmlns="http://www.w3.org/2000/svg">
</g>
<g xmlns="http://www.w3.org/2000/svg">
</g>
<g xmlns="http://www.w3.org/2000/svg">
</g>
<g xmlns="http://www.w3.org/2000/svg">
</g>
<g xmlns="http://www.w3.org/2000/svg">
</g>
<g xmlns="http://www.w3.org/2000/svg">
</g>
<g xmlns="http://www.w3.org/2000/svg">
</g>
<g xmlns="http://www.w3.org/2000/svg">
</g>
</g></svg>
