<svg width="100" height="100" viewBox="0 0 100 100" fill="none" xmlns="http://www.w3.org/2000/svg">
<ellipse cx="86.7917" cy="15" rx="9.79167" ry="10" fill="#FCC12B"/>
<ellipse cx="39.5" cy="56" rx="23.5" ry="24" fill="#FCC12B"/>
<g filter="url(#filter0_bd)">
<circle cx="60" cy="40" r="40" fill="url(#paint0_linear)"/>
<circle cx="60" cy="40" r="39.5" stroke="url(#paint1_linear)"/>
</g>
<g filter="url(#filter1_d)">
<path d="M61.7319 21L80.7839 54C80.9595 54.304 81.0519 54.6489 81.0519 55C81.0519 55.351 80.9595 55.6959 80.784 56C80.6084 56.304 80.356 56.5565 80.0519 56.732C79.7479 56.9076 79.403 57 79.0519 57H40.9479C40.5969 57 40.252 56.9076 39.948 56.732C39.6439 56.5565 39.3915 56.304 39.2159 56C39.0404 55.6959 38.948 55.351 38.948 55C38.948 54.6489 39.0404 54.304 39.2159 54L58.2679 21C58.4435 20.696 58.696 20.4435 59 20.268C59.304 20.0925 59.6489 20.0001 59.9999 20.0001C60.351 20.0001 60.6959 20.0925 60.9999 20.268C61.3039 20.4435 61.5564 20.696 61.7319 21ZM44.4119 53H75.5879L59.9999 26L44.4119 53ZM57.9999 47H61.9999V51H57.9999V47ZM57.9999 33H61.9999V43H57.9999V33Z" fill="white"/>
</g>
<defs>
<filter id="filter0_bd" x="0" y="-20" width="120" height="120" filterUnits="userSpaceOnUse" color-interpolation-filters="sRGB">
<feFlood flood-opacity="0" result="BackgroundImageFix"/>
<feGaussianBlur in="BackgroundImage" stdDeviation="10"/>
<feComposite in2="SourceAlpha" operator="in" result="effect1_backgroundBlur"/>
<feColorMatrix in="SourceAlpha" type="matrix" values="0 0 0 0 0 0 0 0 0 0 0 0 0 0 0 0 0 0 127 0"/>
<feOffset dx="-10" dy="10"/>
<feGaussianBlur stdDeviation="5"/>
<feColorMatrix type="matrix" values="0 0 0 0 0 0 0 0 0 0 0 0 0 0 0 0 0 0 0.05 0"/>
<feBlend mode="normal" in2="effect1_backgroundBlur" result="effect2_dropShadow"/>
<feBlend mode="normal" in="SourceGraphic" in2="effect2_dropShadow" result="shape"/>
</filter>
<filter id="filter1_d" x="26" y="10" width="68" height="68" filterUnits="userSpaceOnUse" color-interpolation-filters="sRGB">
<feFlood flood-opacity="0" result="BackgroundImageFix"/>
<feColorMatrix in="SourceAlpha" type="matrix" values="0 0 0 0 0 0 0 0 0 0 0 0 0 0 0 0 0 0 127 0"/>
<feOffset dy="5"/>
<feGaussianBlur stdDeviation="5"/>
<feColorMatrix type="matrix" values="0 0 0 0 0 0 0 0 0 0 0 0 0 0 0 0 0 0 0.25 0"/>
<feBlend mode="normal" in2="BackgroundImageFix" result="effect1_dropShadow"/>
<feBlend mode="normal" in="SourceGraphic" in2="effect1_dropShadow" result="shape"/>
</filter>
<linearGradient id="paint0_linear" x1="37" y1="66.5" x2="90" y2="14.5" gradientUnits="userSpaceOnUse">
<stop stop-color="#FCC12B" stop-opacity="0.5"/>
<stop offset="1" stop-color="white" stop-opacity="0.25"/>
</linearGradient>
<linearGradient id="paint1_linear" x1="34" y1="67" x2="90" y2="15.5" gradientUnits="userSpaceOnUse">
<stop stop-color="white" stop-opacity="0.25"/>
<stop offset="1" stop-color="white" stop-opacity="0.05"/>
</linearGradient>
</defs>
</svg>
