<svg height="514pt" viewBox="-16 -46 514.66669 514" width="514pt" xmlns="http://www.w3.org/2000/svg"><path d="m482.5 39.582031c-.023438-22.773437-18.476562-41.222656-41.25-41.25h-400c-22.773438.027344-41.2265625 18.476563-41.25 41.25v40.914063h482.5zm-436.90625 27.226563c-15.03125 0-27.226562-12.191406-27.226562-27.226563 0-15.039062 12.195312-27.230469 27.234374-27.230469 15.03125 0 27.226563 12.191407 27.226563 27.230469-.019531 15.03125-12.199219 27.214844-27.234375 27.226563zm63.046875 0c-15.039063 0-27.226563-12.191406-27.226563-27.230469.007813-15.039063 12.199219-27.226563 27.234376-27.226563 15.039062.003907 27.226562 12.191407 27.226562 27.230469-.015625 15.035157-12.203125 27.214844-27.234375 27.226563zm63.042969 0c-15.039063 0-27.230469-12.1875-27.230469-27.226563 0-15.039062 12.191406-27.230469 27.230469-27.230469 15.039062 0 27.226562 12.191407 27.226562 27.230469-.011718 15.03125-12.195312 27.214844-27.226562 27.226563zm0 0"/><path d="m108.640625 29.855469c-5.375 0-9.730469 4.355469-9.730469 9.726562 0 5.371094 4.355469 9.726563 9.730469 9.726563s9.726563-4.355469 9.726563-9.726563c-.003907-5.371093-4.351563-9.71875-9.726563-9.726562zm0 0"/><path d="m41.25 419.964844h400c22.773438-.023438 41.226562-18.480469 41.25-41.25v-280.71875h-482.5v280.71875c.0234375 22.769531 18.476562 41.226562 41.25 41.25zm242.28125-260.113282h137.5c4.832031 0 8.75 3.921876 8.75 8.75 0 4.835938-3.917969 8.75-8.75 8.75h-137.5c-4.835938 0-8.75-3.914062-8.75-8.75 0-4.828124 3.914062-8.75 8.75-8.75zm0 63.261719h137.5c4.832031 0 8.75 3.921875 8.75 8.75 0 4.835938-3.917969 8.75-8.75 8.75h-137.5c-4.835938 0-8.75-3.914062-8.75-8.75 0-4.828125 3.914062-8.75 8.75-8.75zm0 63.261719h137.5c4.832031 0 8.75 3.921875 8.75 8.75 0 4.835938-3.917969 8.75-8.75 8.75h-137.5c-4.835938 0-8.75-3.914062-8.75-8.75 0-4.828125 3.914062-8.75 8.75-8.75zm0 63.261719h137.5c4.832031 0 8.75 3.921875 8.75 8.75 0 4.835937-3.917969 8.75-8.75 8.75h-137.5c-4.835938 0-8.75-3.914063-8.75-8.75 0-4.828125 3.914062-8.75 8.75-8.75zm-233.53125-181.035157c0-4.828124 3.914062-8.75 8.75-8.75h158.75c4.835938 0 8.75 3.921876 8.75 8.75v189.785157c0 4.835937-3.914062 8.75-8.75 8.75h-158.75c-4.835938 0-8.75-3.914063-8.75-8.75zm0 0"/><path d="m171.683594 29.855469c-5.371094-.003907-9.730469 4.351562-9.730469 9.726562 0 5.371094 4.355469 9.726563 9.730469 9.726563 5.371094 0 9.726562-4.355469 9.726562-9.726563-.003906-5.371093-4.355468-9.71875-9.726562-9.726562zm0 0"/><path d="m45.59375 29.855469c-5.367188 0-9.726562 4.355469-9.726562 9.726562 0 5.371094 4.359374 9.726563 9.726562 9.726563 5.378906 0 9.734375-4.355469 9.734375-9.726563-.007813-5.371093-4.359375-9.71875-9.734375-9.726562zm0 0"/><path d="m67.5 177.351562h141.25v172.285157h-141.25zm0 0"/></svg>